<svg xmlns="http://www.w3.org/2000/svg" xmlns:xlink="http://www.w3.org/1999/xlink" width="500" zoomAndPan="magnify" viewBox="0 0 375 374.999991" height="500" preserveAspectRatio="xMidYMid meet" version="1.0"><defs><clipPath id="b0b13e93f1"><path d="M 3.265625 6.230469 L 372 6.230469 L 372 368.769531 L 3.265625 368.769531 Z M 3.265625 6.230469 " clip-rule="nonzero"/></clipPath><clipPath id="25fe74f8d0"><path d="M 20.515625 6.230469 L 354.484375 6.230469 C 359.058594 6.230469 363.445312 8.046875 366.679688 11.28125 C 369.917969 14.515625 371.734375 18.90625 371.734375 23.480469 L 371.734375 351.519531 C 371.734375 356.09375 369.917969 360.484375 366.679688 363.71875 C 363.445312 366.953125 359.058594 368.769531 354.484375 368.769531 L 20.515625 368.769531 C 15.941406 368.769531 11.554688 366.953125 8.320312 363.71875 C 5.082031 360.484375 3.265625 356.09375 3.265625 351.519531 L 3.265625 23.480469 C 3.265625 18.90625 5.082031 14.515625 8.320312 11.28125 C 11.554688 8.046875 15.941406 6.230469 20.515625 6.230469 Z M 20.515625 6.230469 " clip-rule="nonzero"/></clipPath><clipPath id="d4ce0efa4d"><path d="M 0.265625 0.230469 L 368.472656 0.230469 L 368.472656 362.769531 L 0.265625 362.769531 Z M 0.265625 0.230469 " clip-rule="nonzero"/></clipPath><clipPath id="ec01aae5f4"><path d="M 17.515625 0.230469 L 351.484375 0.230469 C 356.058594 0.230469 360.445312 2.046875 363.679688 5.28125 C 366.917969 8.515625 368.734375 12.90625 368.734375 17.480469 L 368.734375 345.519531 C 368.734375 350.09375 366.917969 354.484375 363.679688 357.71875 C 360.445312 360.953125 356.058594 362.769531 351.484375 362.769531 L 17.515625 362.769531 C 12.941406 362.769531 8.554688 360.953125 5.320312 357.71875 C 2.082031 354.484375 0.265625 350.09375 0.265625 345.519531 L 0.265625 17.480469 C 0.265625 12.90625 2.082031 8.515625 5.320312 5.28125 C 8.554688 2.046875 12.941406 0.230469 17.515625 0.230469 Z M 17.515625 0.230469 " clip-rule="nonzero"/></clipPath><linearGradient x1="0.00656128" gradientTransform="matrix(1.416173, 0, 0, 1.416173, 0.256901, 0.229839)" y1="128" x2="260.006564" gradientUnits="userSpaceOnUse" y2="128" id="521453ef16"><stop stop-opacity="1" stop-color="rgb(0%, 3.919983%, 9.80072%)" offset="0"/><stop stop-opacity="1" stop-color="rgb(0.00762939%, 4.019165%, 9.959412%)" offset="0.0078125"/><stop stop-opacity="1" stop-color="rgb(0.0228882%, 4.217529%, 10.276794%)" offset="0.015625"/><stop stop-opacity="1" stop-color="rgb(0.038147%, 4.417419%, 10.595703%)" offset="0.0234375"/><stop stop-opacity="1" stop-color="rgb(0.0534058%, 4.615784%, 10.914612%)" offset="0.03125"/><stop stop-opacity="1" stop-color="rgb(0.0686646%, 4.815674%, 11.231995%)" offset="0.0390625"/><stop stop-opacity="1" stop-color="rgb(0.0839233%, 5.014038%, 11.550903%)" offset="0.046875"/><stop stop-opacity="1" stop-color="rgb(0.0991821%, 5.212402%, 11.869812%)" offset="0.0546875"/><stop stop-opacity="1" stop-color="rgb(0.114441%, 5.412292%, 12.188721%)" offset="0.0625"/><stop stop-opacity="1" stop-color="rgb(0.1297%, 5.610657%, 12.506104%)" offset="0.0703125"/><stop stop-opacity="1" stop-color="rgb(0.144958%, 5.810547%, 12.825012%)" offset="0.078125"/><stop stop-opacity="1" stop-color="rgb(0.160217%, 6.008911%, 13.143921%)" offset="0.0859375"/><stop stop-opacity="1" stop-color="rgb(0.175476%, 6.208801%, 13.461304%)" offset="0.09375"/><stop stop-opacity="1" stop-color="rgb(0.190735%, 6.407166%, 13.780212%)" offset="0.101562"/><stop stop-opacity="1" stop-color="rgb(0.205994%, 6.60553%, 14.099121%)" offset="0.109375"/><stop stop-opacity="1" stop-color="rgb(0.221252%, 6.80542%, 14.416504%)" offset="0.117188"/><stop stop-opacity="1" stop-color="rgb(0.236511%, 7.003784%, 14.735413%)" offset="0.125"/><stop stop-opacity="1" stop-color="rgb(0.25177%, 7.203674%, 15.054321%)" offset="0.132812"/><stop stop-opacity="1" stop-color="rgb(0.267029%, 7.402039%, 15.37323%)" offset="0.140625"/><stop stop-opacity="1" stop-color="rgb(0.282288%, 7.600403%, 15.690613%)" offset="0.148438"/><stop stop-opacity="1" stop-color="rgb(0.297546%, 7.800293%, 16.009521%)" offset="0.15625"/><stop stop-opacity="1" stop-color="rgb(0.312805%, 7.998657%, 16.32843%)" offset="0.164063"/><stop stop-opacity="1" stop-color="rgb(0.328064%, 8.198547%, 16.645813%)" offset="0.171875"/><stop stop-opacity="1" stop-color="rgb(0.343323%, 8.396912%, 16.964722%)" offset="0.179688"/><stop stop-opacity="1" stop-color="rgb(0.358582%, 8.596802%, 17.28363%)" offset="0.1875"/><stop stop-opacity="1" stop-color="rgb(0.37384%, 8.795166%, 17.601013%)" offset="0.195312"/><stop stop-opacity="1" stop-color="rgb(0.389099%, 8.99353%, 17.919922%)" offset="0.203125"/><stop stop-opacity="1" stop-color="rgb(0.404358%, 9.19342%, 18.238831%)" offset="0.210938"/><stop stop-opacity="1" stop-color="rgb(0.419617%, 9.391785%, 18.557739%)" offset="0.21875"/><stop stop-opacity="1" stop-color="rgb(0.434875%, 9.591675%, 18.875122%)" offset="0.226562"/><stop stop-opacity="1" stop-color="rgb(0.450134%, 9.790039%, 19.194031%)" offset="0.234375"/><stop stop-opacity="1" stop-color="rgb(0.465393%, 9.988403%, 19.512939%)" offset="0.242188"/><stop stop-opacity="1" stop-color="rgb(0.480652%, 10.188293%, 19.830322%)" offset="0.25"/><stop stop-opacity="1" stop-color="rgb(0.495911%, 10.386658%, 20.149231%)" offset="0.257812"/><stop stop-opacity="1" stop-color="rgb(0.511169%, 10.586548%, 20.46814%)" offset="0.265625"/><stop stop-opacity="1" stop-color="rgb(0.526428%, 10.784912%, 20.785522%)" offset="0.273437"/><stop stop-opacity="1" stop-color="rgb(0.543213%, 10.983276%, 21.104431%)" offset="0.28125"/><stop stop-opacity="1" stop-color="rgb(0.558472%, 11.183167%, 21.42334%)" offset="0.289062"/><stop stop-opacity="1" stop-color="rgb(0.57373%, 11.381531%, 21.740723%)" offset="0.296875"/><stop stop-opacity="1" stop-color="rgb(0.588989%, 11.581421%, 22.059631%)" offset="0.304687"/><stop stop-opacity="1" stop-color="rgb(0.604248%, 11.779785%, 22.37854%)" offset="0.3125"/><stop stop-opacity="1" stop-color="rgb(0.619507%, 11.979675%, 22.697449%)" offset="0.320312"/><stop stop-opacity="1" stop-color="rgb(0.634766%, 12.17804%, 23.014832%)" offset="0.328125"/><stop stop-opacity="1" stop-color="rgb(0.650024%, 12.376404%, 23.33374%)" offset="0.335937"/><stop stop-opacity="1" stop-color="rgb(0.665283%, 12.576294%, 23.652649%)" offset="0.34375"/><stop stop-opacity="1" stop-color="rgb(0.680542%, 12.774658%, 23.970032%)" offset="0.351562"/><stop stop-opacity="1" stop-color="rgb(0.695801%, 12.974548%, 24.28894%)" offset="0.359375"/><stop stop-opacity="1" stop-color="rgb(0.71106%, 13.172913%, 24.607849%)" offset="0.367188"/><stop stop-opacity="1" stop-color="rgb(0.726318%, 13.371277%, 24.925232%)" offset="0.375"/><stop stop-opacity="1" stop-color="rgb(0.741577%, 13.571167%, 25.244141%)" offset="0.382812"/><stop stop-opacity="1" stop-color="rgb(0.756836%, 13.769531%, 25.563049%)" offset="0.390625"/><stop stop-opacity="1" stop-color="rgb(0.772095%, 13.969421%, 25.881958%)" offset="0.398437"/><stop stop-opacity="1" stop-color="rgb(0.787354%, 14.167786%, 26.199341%)" offset="0.40625"/><stop stop-opacity="1" stop-color="rgb(0.802612%, 14.367676%, 26.51825%)" offset="0.414062"/><stop stop-opacity="1" stop-color="rgb(0.817871%, 14.56604%, 26.837158%)" offset="0.421875"/><stop stop-opacity="1" stop-color="rgb(0.83313%, 14.764404%, 27.154541%)" offset="0.429687"/><stop stop-opacity="1" stop-color="rgb(0.848389%, 14.964294%, 27.47345%)" offset="0.4375"/><stop stop-opacity="1" stop-color="rgb(0.863647%, 15.162659%, 27.792358%)" offset="0.445312"/><stop stop-opacity="1" stop-color="rgb(0.878906%, 15.362549%, 28.109741%)" offset="0.453125"/><stop stop-opacity="1" stop-color="rgb(0.894165%, 15.560913%, 28.42865%)" offset="0.460937"/><stop stop-opacity="1" stop-color="rgb(0.909424%, 15.759277%, 28.747559%)" offset="0.46875"/><stop stop-opacity="1" stop-color="rgb(0.924683%, 15.959167%, 29.064941%)" offset="0.476562"/><stop stop-opacity="1" stop-color="rgb(0.939941%, 16.157532%, 29.38385%)" offset="0.484375"/><stop stop-opacity="1" stop-color="rgb(0.9552%, 16.357422%, 29.702759%)" offset="0.492187"/><stop stop-opacity="1" stop-color="rgb(0.970459%, 16.555786%, 30.021667%)" offset="0.5"/><stop stop-opacity="1" stop-color="rgb(0.985718%, 16.755676%, 30.33905%)" offset="0.507812"/><stop stop-opacity="1" stop-color="rgb(1.000977%, 16.954041%, 30.657959%)" offset="0.515625"/><stop stop-opacity="1" stop-color="rgb(1.016235%, 17.152405%, 30.976868%)" offset="0.523438"/><stop stop-opacity="1" stop-color="rgb(1.031494%, 17.352295%, 31.29425%)" offset="0.53125"/><stop stop-opacity="1" stop-color="rgb(1.046753%, 17.550659%, 31.613159%)" offset="0.539062"/><stop stop-opacity="1" stop-color="rgb(1.062012%, 17.750549%, 31.932068%)" offset="0.546875"/><stop stop-opacity="1" stop-color="rgb(1.077271%, 17.948914%, 32.249451%)" offset="0.554688"/><stop stop-opacity="1" stop-color="rgb(1.094055%, 18.147278%, 32.568359%)" offset="0.5625"/><stop stop-opacity="1" stop-color="rgb(1.109314%, 18.347168%, 32.887268%)" offset="0.570312"/><stop stop-opacity="1" stop-color="rgb(1.124573%, 18.545532%, 33.206177%)" offset="0.578125"/><stop stop-opacity="1" stop-color="rgb(1.139832%, 18.745422%, 33.52356%)" offset="0.585938"/><stop stop-opacity="1" stop-color="rgb(1.15509%, 18.943787%, 33.842468%)" offset="0.59375"/><stop stop-opacity="1" stop-color="rgb(1.170349%, 19.143677%, 34.161377%)" offset="0.601562"/><stop stop-opacity="1" stop-color="rgb(1.185608%, 19.342041%, 34.47876%)" offset="0.609375"/><stop stop-opacity="1" stop-color="rgb(1.200867%, 19.540405%, 34.797668%)" offset="0.617188"/><stop stop-opacity="1" stop-color="rgb(1.216125%, 19.740295%, 35.116577%)" offset="0.625"/><stop stop-opacity="1" stop-color="rgb(1.231384%, 19.93866%, 35.43396%)" offset="0.632813"/><stop stop-opacity="1" stop-color="rgb(1.246643%, 20.13855%, 35.752869%)" offset="0.640625"/><stop stop-opacity="1" stop-color="rgb(1.261902%, 20.336914%, 36.071777%)" offset="0.648438"/><stop stop-opacity="1" stop-color="rgb(1.277161%, 20.535278%, 36.38916%)" offset="0.65625"/><stop stop-opacity="1" stop-color="rgb(1.292419%, 20.735168%, 36.708069%)" offset="0.664062"/><stop stop-opacity="1" stop-color="rgb(1.307678%, 20.933533%, 37.026978%)" offset="0.671875"/><stop stop-opacity="1" stop-color="rgb(1.322937%, 21.133423%, 37.345886%)" offset="0.679688"/><stop stop-opacity="1" stop-color="rgb(1.338196%, 21.331787%, 37.663269%)" offset="0.6875"/><stop stop-opacity="1" stop-color="rgb(1.353455%, 21.531677%, 37.982178%)" offset="0.695313"/><stop stop-opacity="1" stop-color="rgb(1.368713%, 21.730042%, 38.301086%)" offset="0.703125"/><stop stop-opacity="1" stop-color="rgb(1.383972%, 21.928406%, 38.618469%)" offset="0.710938"/><stop stop-opacity="1" stop-color="rgb(1.399231%, 22.128296%, 38.937378%)" offset="0.71875"/><stop stop-opacity="1" stop-color="rgb(1.41449%, 22.32666%, 39.256287%)" offset="0.726562"/><stop stop-opacity="1" stop-color="rgb(1.429749%, 22.52655%, 39.573669%)" offset="0.734375"/><stop stop-opacity="1" stop-color="rgb(1.445007%, 22.724915%, 39.892578%)" offset="0.742188"/><stop stop-opacity="1" stop-color="rgb(1.460266%, 22.923279%, 40.211487%)" offset="0.75"/><stop stop-opacity="1" stop-color="rgb(1.475525%, 23.123169%, 40.530396%)" offset="0.757812"/><stop stop-opacity="1" stop-color="rgb(1.490784%, 23.321533%, 40.847778%)" offset="0.765625"/><stop stop-opacity="1" stop-color="rgb(1.506042%, 23.521423%, 41.166687%)" offset="0.773438"/><stop stop-opacity="1" stop-color="rgb(1.521301%, 23.719788%, 41.485596%)" offset="0.78125"/><stop stop-opacity="1" stop-color="rgb(1.53656%, 23.919678%, 41.802979%)" offset="0.789063"/><stop stop-opacity="1" stop-color="rgb(1.551819%, 24.118042%, 42.121887%)" offset="0.796875"/><stop stop-opacity="1" stop-color="rgb(1.567078%, 24.316406%, 42.440796%)" offset="0.804687"/><stop stop-opacity="1" stop-color="rgb(1.582336%, 24.516296%, 42.758179%)" offset="0.8125"/><stop stop-opacity="1" stop-color="rgb(1.597595%, 24.714661%, 43.077087%)" offset="0.820312"/><stop stop-opacity="1" stop-color="rgb(1.612854%, 24.914551%, 43.395996%)" offset="0.828125"/><stop stop-opacity="1" stop-color="rgb(1.629639%, 25.112915%, 43.714905%)" offset="0.835938"/><stop stop-opacity="1" stop-color="rgb(1.644897%, 25.311279%, 44.032288%)" offset="0.84375"/><stop stop-opacity="1" stop-color="rgb(1.660156%, 25.511169%, 44.351196%)" offset="0.851562"/><stop stop-opacity="1" stop-color="rgb(1.675415%, 25.709534%, 44.670105%)" offset="0.859375"/><stop stop-opacity="1" stop-color="rgb(1.690674%, 25.909424%, 44.987488%)" offset="0.867188"/><stop stop-opacity="1" stop-color="rgb(1.705933%, 26.107788%, 45.306396%)" offset="0.875"/><stop stop-opacity="1" stop-color="rgb(1.721191%, 26.307678%, 45.625305%)" offset="0.882812"/><stop stop-opacity="1" stop-color="rgb(1.73645%, 26.506042%, 45.942688%)" offset="0.890625"/><stop stop-opacity="1" stop-color="rgb(1.751709%, 26.704407%, 46.261597%)" offset="0.898438"/><stop stop-opacity="1" stop-color="rgb(1.766968%, 26.904297%, 46.580505%)" offset="0.90625"/><stop stop-opacity="1" stop-color="rgb(1.782227%, 27.102661%, 46.897888%)" offset="0.914062"/><stop stop-opacity="1" stop-color="rgb(1.797485%, 27.302551%, 47.216797%)" offset="0.921875"/><stop stop-opacity="1" stop-color="rgb(1.812744%, 27.500916%, 47.535706%)" offset="0.929688"/><stop stop-opacity="1" stop-color="rgb(1.828003%, 27.69928%, 47.854614%)" offset="0.9375"/><stop stop-opacity="1" stop-color="rgb(1.843262%, 27.89917%, 48.171997%)" offset="0.945313"/><stop stop-opacity="1" stop-color="rgb(1.858521%, 28.097534%, 48.490906%)" offset="0.953125"/><stop stop-opacity="1" stop-color="rgb(1.873779%, 28.297424%, 48.809814%)" offset="0.960937"/><stop stop-opacity="1" stop-color="rgb(1.889038%, 28.495789%, 49.127197%)" offset="0.96875"/><stop stop-opacity="1" stop-color="rgb(1.904297%, 28.695679%, 49.446106%)" offset="0.976562"/><stop stop-opacity="1" stop-color="rgb(1.919556%, 28.894043%, 49.765015%)" offset="0.984375"/><stop stop-opacity="1" stop-color="rgb(1.934814%, 29.092407%, 50.082397%)" offset="0.992188"/><stop stop-opacity="1" stop-color="rgb(1.950073%, 29.292297%, 50.401306%)" offset="1"/></linearGradient><clipPath id="8defc7b77d"><rect x="0" width="369" y="0" height="363"/></clipPath><clipPath id="f95151c20a"><path d="M 230.722656 55 L 294.136719 55 L 294.136719 313.976562 L 230.722656 313.976562 Z M 230.722656 55 " clip-rule="nonzero"/></clipPath><clipPath id="0d7eee4785"><path d="M 230.722656 296.726562 L 230.722656 72.257812 C 230.722656 62.734375 238.445312 55.007812 247.972656 55.007812 L 276.886719 55.007812 C 286.414062 55.007812 294.136719 62.734375 294.136719 72.257812 L 294.136719 296.726562 C 294.136719 306.253906 286.414062 313.976562 276.886719 313.976562 L 247.972656 313.976562 C 238.445312 313.976562 230.722656 306.253906 230.722656 296.726562 Z M 230.722656 296.726562 " clip-rule="nonzero"/></clipPath><clipPath id="78945c4617"><path d="M 0.722656 0 L 64.136719 0 L 64.136719 258.976562 L 0.722656 258.976562 Z M 0.722656 0 " clip-rule="nonzero"/></clipPath><clipPath id="34b718b863"><path d="M 0.722656 241.726562 L 0.722656 17.257812 C 0.722656 7.734375 8.445312 0.0078125 17.972656 0.0078125 L 46.886719 0.0078125 C 56.414062 0.0078125 64.136719 7.734375 64.136719 17.257812 L 64.136719 241.726562 C 64.136719 251.253906 56.414062 258.976562 46.886719 258.976562 L 17.972656 258.976562 C 8.445312 258.976562 0.722656 251.253906 0.722656 241.726562 Z M 0.722656 241.726562 " clip-rule="nonzero"/></clipPath><clipPath id="25a50e2ae0"><rect x="0" width="65" y="0" height="259"/></clipPath><clipPath id="011ce73670"><path d="M 153.058594 114.074219 L 216.476562 114.074219 L 216.476562 313.980469 L 153.058594 313.980469 Z M 153.058594 114.074219 " clip-rule="nonzero"/></clipPath><clipPath id="91c4ea7ce1"><path d="M 153.058594 296.730469 L 153.058594 131.53125 C 153.058594 122.003906 160.78125 114.28125 170.308594 114.28125 L 199.226562 114.28125 C 208.753906 114.28125 216.476562 122.003906 216.476562 131.53125 L 216.476562 296.730469 C 216.476562 306.257812 208.753906 313.980469 199.226562 313.980469 L 170.308594 313.980469 C 160.78125 313.980469 153.058594 306.257812 153.058594 296.730469 Z M 153.058594 296.730469 " clip-rule="nonzero"/></clipPath><clipPath id="241de8e41d"><path d="M 0.0585938 0.238281 L 63.476562 0.238281 L 63.476562 199.980469 L 0.0585938 199.980469 Z M 0.0585938 0.238281 " clip-rule="nonzero"/></clipPath><clipPath id="ffb7089011"><path d="M 0.0585938 182.730469 L 0.0585938 17.53125 C 0.0585938 8.003906 7.78125 0.28125 17.308594 0.28125 L 46.226562 0.28125 C 55.753906 0.28125 63.476562 8.003906 63.476562 17.53125 L 63.476562 182.730469 C 63.476562 192.257812 55.753906 199.980469 46.226562 199.980469 L 17.308594 199.980469 C 7.78125 199.980469 0.0585938 192.257812 0.0585938 182.730469 Z M 0.0585938 182.730469 " clip-rule="nonzero"/></clipPath><clipPath id="ac12a8f96e"><rect x="0" width="64" y="0" height="200"/></clipPath><clipPath id="ea954c7c3a"><path d="M 74.859375 176.300781 L 138.828125 176.300781 L 138.828125 313.976562 L 74.859375 313.976562 Z M 74.859375 176.300781 " clip-rule="nonzero"/></clipPath><clipPath id="04494865b4"><path d="M 74.859375 296.726562 L 74.859375 193.746094 C 74.859375 184.21875 82.582031 176.496094 92.109375 176.496094 L 121.578125 176.496094 C 131.105469 176.496094 138.828125 184.21875 138.828125 193.746094 L 138.828125 296.726562 C 138.828125 306.253906 131.105469 313.976562 121.578125 313.976562 L 92.109375 313.976562 C 82.582031 313.976562 74.859375 306.253906 74.859375 296.726562 Z M 74.859375 296.726562 " clip-rule="nonzero"/></clipPath><clipPath id="487816ad1e"><path d="M 0.859375 0.398438 L 64.828125 0.398438 L 64.828125 137.976562 L 0.859375 137.976562 Z M 0.859375 0.398438 " clip-rule="nonzero"/></clipPath><clipPath id="f22dbc1b74"><path d="M 0.859375 120.726562 L 0.859375 17.746094 C 0.859375 8.21875 8.582031 0.496094 18.109375 0.496094 L 47.578125 0.496094 C 57.105469 0.496094 64.828125 8.21875 64.828125 17.746094 L 64.828125 120.726562 C 64.828125 130.253906 57.105469 137.976562 47.578125 137.976562 L 18.109375 137.976562 C 8.582031 137.976562 0.859375 130.253906 0.859375 120.726562 Z M 0.859375 120.726562 " clip-rule="nonzero"/></clipPath><clipPath id="8b444e27f7"><rect x="0" width="65" y="0" height="138"/></clipPath></defs><g clip-path="url(#b0b13e93f1)"><g clip-path="url(#25fe74f8d0)"><g transform="matrix(1, 0, 0, 1, 3, 6)"><g clip-path="url(#8defc7b77d)"><g clip-path="url(#d4ce0efa4d)"><g clip-path="url(#ec01aae5f4)"><path fill="url(#521453ef16)" d="M 0.265625 0.230469 L 0.265625 362.769531 L 368.472656 362.769531 L 368.472656 0.230469 Z M 0.265625 0.230469 " fill-rule="nonzero"/></g></g></g></g></g></g><g clip-path="url(#f95151c20a)"><g clip-path="url(#0d7eee4785)"><g transform="matrix(1, 0, 0, 1, 230, 55)"><g clip-path="url(#25a50e2ae0)"><g clip-path="url(#78945c4617)"><g clip-path="url(#34b718b863)"><path fill="#ffffff" d="M 0.722656 258.976562 L 0.722656 0.117188 L 64.136719 0.117188 L 64.136719 258.976562 Z M 0.722656 258.976562 " fill-opacity="1" fill-rule="nonzero"/></g></g></g></g></g></g><g clip-path="url(#011ce73670)"><g clip-path="url(#91c4ea7ce1)"><g transform="matrix(1, 0, 0, 1, 153, 114)"><g clip-path="url(#ac12a8f96e)"><g clip-path="url(#241de8e41d)"><g clip-path="url(#ffb7089011)"><path fill="#ffffff" d="M 0.0585938 199.980469 L 0.0585938 0.324219 L 63.476562 0.324219 L 63.476562 199.980469 Z M 0.0585938 199.980469 " fill-opacity="1" fill-rule="nonzero"/></g></g></g></g></g></g><g clip-path="url(#ea954c7c3a)"><g clip-path="url(#04494865b4)"><g transform="matrix(1, 0, 0, 1, 74, 176)"><g clip-path="url(#8b444e27f7)"><g clip-path="url(#487816ad1e)"><g clip-path="url(#f22dbc1b74)"><path fill="#ffffff" d="M 0.859375 137.976562 L 0.859375 0.550781 L 64.828125 0.550781 L 64.828125 137.976562 Z M 0.859375 137.976562 " fill-opacity="1" fill-rule="nonzero"/></g></g></g></g></g></g></svg>